<svg width="8" height="11" viewBox="0 0 8 11" fill="none" xmlns="http://www.w3.org/2000/svg">
<path d="M4 0C1.79453 0 0 1.73466 0 3.86712C0 4.58765 0.206271 5.29065 0.597198 5.90051L3.77238 10.8475C3.83322 10.9422 3.94049 11 4.0555 11C4.0563 11 4.05737 11 4.05817 11C4.17452 10.999 4.28179 10.9396 4.34156 10.8434L7.43589 5.8484C7.80494 5.25118 8 4.56624 8 3.86712C8 1.73466 6.20574 0 4 0ZM4 5.80068C2.88272 5.80068 2 4.92638 2 3.86712C2 2.80089 2.89713 1.93356 4 1.93356C5.10287 1.93356 6 2.80089 6 3.86712C6 4.91477 5.13115 5.80068 4 5.80068Z" fill="white"/>
</svg>
