<svg width="10" height="10" viewBox="0 0 10 10" fill="none" xmlns="http://www.w3.org/2000/svg">
<path d="M4.99996 0C2.23831 0 0 2.23831 0 5.00004C0 7.76169 2.23831 10.0001 4.99996 10.0001C7.7616 10.0001 10 7.76169 10 5.00004C10 2.23831 7.7616 0 4.99996 0ZM5.37739 9.22763V8.89151C5.37739 8.68289 5.20857 8.51416 5.00004 8.51416C4.79143 8.51416 4.62269 8.68298 4.62269 8.89151V9.22763C2.57863 9.04659 0.946989 7.41128 0.771565 5.36562H1.0968C1.30533 5.36562 1.47415 5.19679 1.47415 4.98827C1.47415 4.77965 1.30533 4.61092 1.0968 4.61092H0.77326C0.959213 2.57622 2.5864 0.952789 4.62269 0.772457V1.08494C4.62269 1.29356 4.79143 1.46229 5.00004 1.46229C5.20866 1.46229 5.37739 1.29356 5.37739 1.08494V0.772368C7.4136 0.9527 9.04088 2.57613 9.22674 4.61083H8.90328C8.69467 4.61083 8.52593 4.77956 8.52593 4.98818C8.52593 5.1968 8.69476 5.36553 8.90328 5.36553H9.22853C9.0531 7.41128 7.42146 9.04659 5.37739 9.22763Z" fill="white"/>
<path d="M7.2479 2.56382L5.01263 4.906C5.00843 4.90591 5.00415 4.90537 4.99987 4.90537C4.97194 4.90537 4.94463 4.90823 4.91813 4.9134L3.04744 3.49993C2.92359 3.40704 2.74603 3.43068 2.65162 3.55596C2.55731 3.67981 2.58167 3.85809 2.70694 3.95241L4.5771 5.36544C4.59512 5.58316 4.77742 5.75448 4.99978 5.75448C5.23418 5.75448 5.42433 5.56424 5.42433 5.32993C5.42433 5.31868 5.42353 5.30771 5.42263 5.29673L7.65747 2.95447C7.76517 2.84097 7.76142 2.66251 7.64801 2.55428C7.53531 2.44595 7.35614 2.45113 7.2479 2.56382Z" fill="white"/>
</svg>
