<svg width="11" height="10" viewBox="0 0 11 10" fill="none" xmlns="http://www.w3.org/2000/svg">
<path d="M5.265 0.883283C6.57395 0.883283 6.729 0.888451 7.24581 0.911943C7.72363 0.933555 7.98345 1.01343 8.15635 1.08061C8.38515 1.16941 8.54865 1.27559 8.72014 1.44708C8.89163 1.61857 8.99781 1.78207 9.08661 2.01088C9.15379 2.18378 9.23366 2.44312 9.25527 2.92141C9.27877 3.43823 9.28394 3.59327 9.28394 4.90222C9.28394 6.21117 9.27877 6.36621 9.25527 6.88303C9.23366 7.36085 9.15379 7.62066 9.08661 7.79356C8.99781 8.02237 8.89163 8.18587 8.72014 8.35736C8.54865 8.52885 8.38515 8.63503 8.15635 8.72383C7.98345 8.79101 7.72363 8.87089 7.24581 8.8925C6.729 8.91599 6.57395 8.92116 5.265 8.92116C3.95605 8.92116 3.80101 8.91599 3.28419 8.8925C2.80638 8.87089 2.54656 8.79101 2.37413 8.72383C2.14533 8.63503 1.98183 8.52885 1.81034 8.35736C1.63885 8.18587 1.53267 8.02237 1.44387 7.79356C1.37669 7.62066 1.29682 7.36132 1.27521 6.88303C1.25171 6.36621 1.24654 6.21117 1.24654 4.90222C1.24654 3.59327 1.25171 3.43823 1.27521 2.92141C1.29729 2.44359 1.37716 2.18378 1.44387 2.01088C1.53267 1.78207 1.63885 1.61904 1.81034 1.44708C1.98183 1.27559 2.14533 1.16941 2.37413 1.08061C2.54703 1.01343 2.80638 0.933555 3.28419 0.911943C3.80054 0.888451 3.95605 0.883283 5.265 0.883283ZM5.265 0C3.9335 0 3.76671 0.0056383 3.24379 0.0295997C2.72181 0.0535611 2.36568 0.136251 2.05371 0.257468C1.73141 0.382913 1.45796 0.550172 1.18546 0.823144C0.912961 1.09565 0.74523 1.36909 0.620255 1.69139C0.499039 2.00336 0.415878 2.35949 0.392387 2.88148C0.368425 3.4044 0.362793 3.57119 0.362793 4.90269C0.362793 6.23419 0.368425 6.40098 0.392387 6.9239C0.415878 7.44589 0.499039 7.80202 0.620255 8.11399C0.74523 8.43629 0.912961 8.70973 1.18546 8.98223C1.45796 9.25474 1.73141 9.42247 2.05371 9.54791C2.36568 9.66913 2.72181 9.75182 3.24379 9.77578C3.76671 9.79974 3.9335 9.80538 5.265 9.80538C6.5965 9.80538 6.76329 9.79974 7.28622 9.77578C7.8082 9.75182 8.16433 9.66913 8.4763 9.54791C8.7986 9.42247 9.07204 9.25521 9.34454 8.98223C9.61705 8.70973 9.78478 8.43629 9.91022 8.11399C10.0314 7.80202 10.1141 7.44589 10.1381 6.9239C10.1621 6.40098 10.1677 6.23419 10.1677 4.90269C10.1677 3.57119 10.1621 3.4044 10.1381 2.88148C10.1141 2.35949 10.0314 2.00336 9.91022 1.69139C9.78478 1.36909 9.61752 1.09565 9.34454 0.823144C9.07204 0.550642 8.7986 0.382913 8.4763 0.257468C8.16433 0.136251 7.8082 0.0535611 7.28622 0.0295997C6.76329 0.0056383 6.59603 0 5.265 0Z" fill="white"/>
<path d="M5.26492 2.38489C3.87468 2.38489 2.74756 3.51201 2.74756 4.90224C2.74756 6.29247 3.87468 7.4196 5.26492 7.4196C6.65515 7.4196 7.78227 6.29247 7.78227 4.90224C7.78227 3.51201 6.65515 2.38489 5.26492 2.38489ZM5.26492 6.53679C4.36237 6.53679 3.63084 5.80526 3.63084 4.90271C3.63084 4.00017 4.36237 3.26864 5.26492 3.26864C6.16746 3.26864 6.89899 4.00017 6.89899 4.90271C6.89899 5.80479 6.16746 6.53679 5.26492 6.53679Z" fill="white"/>
<path d="M8.47013 2.28574C8.47013 2.61039 8.20656 2.87397 7.88192 2.87397C7.5568 2.87397 7.2937 2.61039 7.2937 2.28574C7.2937 1.96109 7.55727 1.69751 7.88192 1.69751C8.20656 1.69704 8.47013 1.96062 8.47013 2.28574Z" fill="white"/>
</svg>
