<svg width="13" height="10" viewBox="0 0 13 10" fill="none" xmlns="http://www.w3.org/2000/svg">
<path d="M0.393066 8.90044C1.47616 9.59524 2.76281 10 4.14476 10C8.68951 10 11.2569 6.16182 11.1022 2.71899C11.5805 2.37424 11.9953 1.943 12.3235 1.45176C11.8847 1.64649 11.4128 1.77828 10.9181 1.83711C11.4228 1.53471 11.8111 1.05524 11.9941 0.482804C11.5211 0.763431 10.9975 0.966988 10.4403 1.077C9.99381 0.601055 9.35784 0.303955 8.65362 0.303955C7.07399 0.303955 5.91265 1.77828 6.26976 3.30908C4.23536 3.2073 2.43158 2.23246 1.22495 0.751664C0.583682 1.8524 0.892549 3.29143 1.9827 4.01976C1.58147 4.00741 1.20318 3.8968 0.873722 3.71325C0.847248 4.84752 1.65971 5.90767 2.83693 6.14476C2.49218 6.2383 2.11507 6.25948 1.73208 6.18653C2.04271 7.15902 2.94695 7.86676 4.01828 7.88618C2.98813 8.69394 1.69207 9.05399 0.393066 8.90044Z" fill="white"/>
</svg>
